<?xml version="1.0" encoding="UTF-8" standalone="no"?>
<svg  xmlns="http://www.w3.org/2000/svg" width="100" height="100" viewBox="0 0 470 470" >
<title>cookie- clipart</title>
<style type="text/css">
  .a{
    fill:#c32e04;
  }
  .b{
    fill:#FFF;
  }
  .c{
    fill:#3D2A20;
  }
</style>
    <path d="M166.9 329c-10.5 23.8-29.7 51.6-45.1 72 -1.5 2-3.7 3-6 3 -1.6 0-3.2-0.5-4.5-1.5 -3.3-2.5-4-7.2-1.5-10.5 13.5-17.9 36.7-50.7 46-75.6l-2.3-2.3c-7.3 2.7-15.8 6.9-25.4 12.3 -1.2 0.7-2.5 1-3.7 1 -2.6 0-5.1-1.4-6.5-3.8 -2.1-3.6-0.8-8.2 2.8-10.2 7.3-4.2 14.1-7.6 20.3-10.4 -49.3-8.8-101.7 12.6-121.6 22 4.7 6.5 6.6 12.1 8.3 17.1 2 6.1 3.8 11.4 11.3 18.9 7.5 7.5 12.8 9.2 18.9 11.3 7 2.3 14.8 4.9 24.8 14.9 10 10 12.6 17.9 14.9 24.8 2 6.1 3.8 11.4 11.3 18.9 7.5 7.5 12.8 9.2 18.9 11.3 5.1 1.7 10.6 3.5 17.1 8.3C154.3 430.7 175.8 378.3 166.9 329zM103.2 342.1c-8.1 5.5-16.6 11.6-25.2 18 -1.4 1-2.9 1.5-4.5 1.5 -2.3 0-4.5-1-6-3 -2.5-3.3-1.8-8 1.5-10.5 8.8-6.6 17.5-12.8 25.9-18.5 3.4-2.3 8.1-1.4 10.4 2C107.6 335.1 106.7 339.8 103.2 342.1z" class="a"/>
    <path d="M442.3 127.8c-2-6.1-3.8-11.4-11.3-18.9 -7.5-7.5-12.8-9.2-18.9-11.3 -7-2.3-14.8-4.9-24.8-14.9 -10-10-12.6-17.9-14.9-24.8 -2-6.1-3.8-11.4-11.3-18.9 -7.5-7.5-12.8-9.2-18.9-11.3 -5.1-1.7-10.6-3.5-17.1-8.3 -9.4 19.9-30.8 72.3-22 121.6 10.5-23.8 29.7-51.6 45.1-72 2.5-3.3 7.2-4 10.5-1.5 3.3 2.5 4 7.2 1.5 10.5 -13.5 17.9-36.7 50.7-46 75.6l2.3 2.3c24.9-9.3 57.7-32.5 75.6-46 3.3-2.5 8-1.8 10.5 1.5s1.8 8-1.5 10.5c-20.5 15.4-48.2 34.5-72 45.1 49.3 8.8 101.7-12.6 121.6-22C445.8 138.4 444 132.9 442.3 127.8z" class="a"/>

	<rect transform="translate(220,90) rotate(45)" width="220" height="210" fill="red" rx="60" ry="60" />
    <path d="M202 149.9c-2.9 2.9-2.9 7.7 0 10.6 1.5 1.5 3.4 2.2 5.3 2.2s3.8-0.7 5.3-2.2c12.3-12.3 32.4-12.3 44.7 0 2.9 2.9 7.7 2.9 10.6 0 2.9-2.9 2.9-7.7 0-10.6C249.8 131.7 220.2 131.7 202 149.9z" class="b"/>
    <path d="M180.8 171.1l-30.9 30.9c-2.9 2.9-2.9 7.7 0 10.6 1.5 1.5 3.4 2.2 5.3 2.2s3.8-0.7 5.3-2.2l30.9-30.9c2.9-2.9 2.9-7.7 0-10.6C188.5 168.2 183.7 168.2 180.8 171.1z" class="b"/>
    <path d="M467.8 142c-7.5-7.5-9.2-12.8-11.3-18.9 -2.3-7-4.9-14.8-14.9-24.8 -10-10-17.9-12.6-24.8-14.9 -6.1-2-11.4-3.8-18.9-11.3 -7.5-7.5-9.2-12.8-11.3-18.9 -2.3-7-4.9-14.8-14.9-24.8 -10-10-17.9-12.6-24.8-14.9 -6.1-2-11.4-3.8-18.9-11.3 -1.7-1.7-4-2.4-6.3-2.1 -2.3 0.3-4.4 1.7-5.5 3.8 -1.5 2.7-33.5 60.7-29.9 122 -14.1-12.7-32.1-19.6-51.2-19.6 -20.5 0-39.7 8-54.2 22.4l-52.2 52.2c-28.9 28.9-29.8 75.3-2.8 105.4C64.5 282.7 6.6 314.6 3.8 316.1c-2 1.1-3.4 3.2-3.8 5.5 -0.3 2.3 0.5 4.7 2.1 6.3 7.5 7.5 9.2 12.8 11.3 18.9 2.3 7 4.9 14.8 14.9 24.8 10 10 17.9 12.6 24.8 14.9 6.1 2 11.4 3.8 18.9 11.3 7.5 7.5 9.2 12.8 11.3 18.9 2.3 7 4.9 14.8 14.9 24.8 10 10 17.9 12.6 24.8 14.9 6.1 2 11.4 3.8 18.9 11.3 1.4 1.4 3.3 2.2 5.3 2.2 0.3 0 0.7 0 1-0.1 2.3-0.3 4.4-1.7 5.5-3.8 1.5-2.7 33.5-60.7 29.9-122 14.1 12.7 32.1 19.6 51.2 19.6 20.5 0 39.7-8 54.2-22.4l52.2-52.2c28.9-28.9 29.8-75.3 2.8-105.4 3.2 0.2 6.4 0.3 9.6 0.3 57.6 0 109.8-28.8 112.4-30.2 2.1-1.1 3.4-3.2 3.8-5.5C470.3 146 469.5 143.7 467.8 142zM330.7 278.6l-52.2 52.2c-11.6 11.6-27.1 18.1-43.6 18.1s-31.9-6.4-43.6-18.1l-52.2-52.2c-24-24-24-63.1 0-87.2l52.2-52.2c11.6-11.6 27.1-18.1 43.6-18.1s31.9 6.4 43.6 18.1l52.2 52.2C354.8 215.5 354.8 254.5 330.7 278.6zM127.8 442.3c-6.1-2-11.4-3.8-18.9-11.3 -7.5-7.5-9.2-12.8-11.3-18.9 -2.3-7-4.9-14.8-14.9-24.8 -10-10-17.9-12.6-24.8-14.9 -6.1-2-11.4-3.8-18.9-11.3 -7.5-7.5-9.2-12.8-11.3-18.9 -1.7-5.1-3.5-10.6-8.3-17.1 19.9-9.4 72.3-30.8 121.6-22 -6.2 2.8-13 6.2-20.3 10.4 -3.6 2.1-4.8 6.6-2.8 10.2 1.4 2.4 3.9 3.8 6.5 3.8 1.3 0 2.5-0.3 3.7-1 9.6-5.5 18.1-9.6 25.4-12.3l2.3 2.3c-9.3 24.9-32.5 57.7-46 75.6 -2.5 3.3-1.8 8 1.5 10.5 1.4 1 2.9 1.5 4.5 1.5 2.3 0 4.5-1 6-3 15.4-20.5 34.5-48.2 45.1-72 8.8 49.3-12.6 101.7-22 121.6C138.4 445.8 132.9 444 127.8 442.3zM329 166.9c23.8-10.5 51.6-29.7 72-45.1 3.3-2.5 4-7.2 1.5-10.5s-7.2-4-10.5-1.5c-17.9 13.5-50.7 36.7-75.6 46l-2.3-2.3c9.3-24.9 32.5-57.7 46-75.6 2.5-3.3 1.8-8-1.5-10.5 -3.3-2.5-8-1.8-10.5 1.5 -15.4 20.5-34.5 48.2-45.1 72 -8.8-49.3 12.6-101.7 22-121.6 6.5 4.7 12.1 6.6 17.1 8.3 6.1 2 11.4 3.8 18.9 11.3 7.5 7.5 9.2 12.8 11.3 18.9 2.3 7 4.9 14.8 14.9 24.8 10 10 17.9 12.6 24.8 14.9 6.1 2 11.4 3.8 18.9 11.3 7.5 7.5 9.2 12.8 11.3 18.9 1.7 5.1 3.5 10.6 8.3 17.1C430.7 154.3 378.3 175.8 329 166.9z" class="c"/>
    <path d="M94.8 329.7c-8.4 5.6-17.1 11.9-25.9 18.5 -3.3 2.5-4 7.2-1.5 10.5 1.5 2 3.7 3 6 3 1.6 0 3.2-0.5 4.5-1.5 8.6-6.5 17.1-12.5 25.2-18 3.4-2.3 4.3-7 2-10.4C102.9 328.2 98.3 327.3 94.8 329.7z" class="c"/>
</svg>
